# xmcd
#
# Track frame offsets: 
#        150
#        18315
#        34067
#        50362
#        66925
#        80240
#        93823
#        110246
#        149961
#        167931
#        189764
#
# Disc length: 2761 seconds
#
# Revision: 0
# Processed by: cddbd v1.5.2PL0 Copyright (c) Steve Scherf et al.
# Submitted via: ExactAudioCopy v1.2
#
DISCID=9c0ac70b
DTITLE=Max Hracek - Blues on Top
DYEAR=2019
DGENRE=Blues
TTITLE0=RM Blues
TTITLE1=The Cat
TTITLE2=That Will Never Do
TTITLE3=Stuff You Gotta Watch
TTITLE4=I Can't Be Satisfied
TTITLE5=Sugar Sweet
TTITLE6=Sick and Tired
TTITLE7=Glamour Girl
TTITLE8=Be Bop Charlie!
TTITLE9=T Bone Boogie
TTITLE10=Terraplane Blues
EXTD=
EXTT0=
EXTT1=
EXTT2=
EXTT3=
EXTT4=
EXTT5=
EXTT6=
EXTT7=
EXTT8=
EXTT9=
EXTT10=
PLAYORDER=
